<?xml version="1.0" encoding="utf-8"?>
<!-- Generator: Adobe Illustrator 24.1.2, SVG Export Plug-In . SVG Version: 6.00 Build 0)  -->
<svg version="1.1" id="Слой_1" xmlns="http://www.w3.org/2000/svg" xmlns:xlink="http://www.w3.org/1999/xlink" x="0px" y="0px"
	 viewBox="0 0 390.89 103.02" style="enable-background:new 0 0 390.89 103.02;" xml:space="preserve">
<style type="text/css">
	.st0{fill:#177FBC;}
</style>
<g>
	<polygon class="st0" points="48.37,0.11 33.29,24.12 18.46,0.11 3.29,0.11 3.29,48.13 18.46,48.13 18.46,26.2 29.49,43.2 
		37.08,43.2 48.37,26.03 48.37,48.13 63.55,48.13 63.55,0.11 	"/>
	<polygon class="st0" points="227.1,0.11 190.13,0.11 190.13,0.28 190.13,12.39 190.13,48.13 205.31,48.13 205.31,12.39 
		227.1,12.39 	"/>
	<polygon class="st0" points="106.62,0.11 88.27,25.44 88.27,0.11 73.1,0.11 73.1,48.13 88.27,48.13 106.62,22.38 106.62,48.13 
		121.79,48.13 121.79,0.11 	"/>
	<polygon class="st0" points="314.23,10.8 298.05,30.49 298.05,10.8 284.68,10.8 284.68,48.13 298.05,48.13 314.23,28.11 
		314.23,48.13 327.61,48.13 327.61,10.8 	"/>
	<polygon class="st0" points="165.36,0.11 147.01,25.44 147.01,0.11 131.84,0.11 131.84,48.13 147.01,48.13 165.36,22.38 
		165.36,48.13 180.53,48.13 180.53,0.11 	"/>
	<g>
		<path class="st0" d="M236.71,48.12l3.41-8.45h18.97l3.42,8.47h17.39l-4.68-10.31l-4.33-9.51l-12.81-28.2h-16.6l-12.8,28.2
			l-3.3,7.27l-5.69,12.55L236.71,48.12 M236.71,48.12 M244.71,28.31l4.91-12.14l4.9,12.14H244.71z"/>
	</g>
	<polygon class="st0" points="385.78,0.11 368.78,0.11 358.02,17.84 352.21,17.84 352.21,0.2 337.04,0.2 337.04,48.13 352.21,48.13 
		352.21,30.32 357.94,30.32 368.78,48.13 385.78,48.13 372.19,24.16 	"/>
</g>
<g>
	<path class="st0" d="M10.79,80.59l-0.02-7.43l-3.83,6.15H5.97l-3.83-6.05v7.33H0.09V69.39h1.78l4.62,7.41l4.57-7.41h1.77
		l0.03,11.21H10.79z"/>
	<path class="st0" d="M17.43,80.14c-0.72-0.37-1.29-0.89-1.69-1.56s-0.61-1.42-0.61-2.27c0-0.84,0.2-1.59,0.61-2.26
		c0.41-0.66,0.97-1.18,1.69-1.55c0.72-0.37,1.53-0.56,2.43-0.56c0.91,0,1.73,0.19,2.45,0.56c0.72,0.37,1.29,0.89,1.69,1.55
		c0.41,0.66,0.61,1.41,0.61,2.26c0,0.84-0.2,1.6-0.61,2.27s-0.97,1.19-1.69,1.56c-0.72,0.37-1.54,0.56-2.45,0.56
		C18.96,80.71,18.15,80.52,17.43,80.14z M21.76,78.26c0.5-0.49,0.75-1.14,0.75-1.94c0-0.8-0.25-1.45-0.75-1.94
		c-0.5-0.49-1.13-0.74-1.9-0.74c-0.77,0-1.4,0.25-1.89,0.74c-0.49,0.49-0.74,1.14-0.74,1.94c0,0.8,0.25,1.45,0.74,1.94
		c0.49,0.49,1.13,0.74,1.89,0.74C20.63,78.99,21.26,78.75,21.76,78.26z"/>
	<path class="st0" d="M28.23,80.14c-0.73-0.37-1.31-0.89-1.72-1.56s-0.62-1.42-0.62-2.27c0-0.84,0.21-1.59,0.62-2.26
		c0.41-0.66,0.98-1.18,1.71-1.55c0.73-0.37,1.56-0.56,2.49-0.56c0.88,0,1.65,0.17,2.31,0.51c0.66,0.34,1.16,0.83,1.49,1.47l-1.6,0.9
		c-0.26-0.39-0.58-0.69-0.96-0.89c-0.38-0.2-0.8-0.3-1.26-0.3c-0.78,0-1.42,0.24-1.93,0.73S28,75.51,28,76.32
		c0,0.81,0.25,1.46,0.76,1.95s1.15,0.73,1.94,0.73c0.46,0,0.88-0.1,1.26-0.3c0.38-0.2,0.7-0.49,0.96-0.89l1.6,0.9
		c-0.34,0.64-0.85,1.13-1.51,1.48c-0.66,0.35-1.43,0.52-2.29,0.52C29.79,80.71,28.97,80.52,28.23,80.14z"/>
	<path class="st0" d="M40.05,77.17h-1.62v3.43h-2.08v-8.55h2.08v3.46h1.67l2.63-3.46h2.23l-3.23,4.11l3.45,4.43h-2.45L40.05,77.17z"
		/>
	<path class="st0" d="M47.89,80.14c-0.72-0.37-1.29-0.89-1.69-1.56s-0.61-1.42-0.61-2.27c0-0.84,0.2-1.59,0.61-2.26
		c0.41-0.66,0.97-1.18,1.69-1.55c0.72-0.37,1.53-0.56,2.43-0.56c0.91,0,1.73,0.19,2.45,0.56c0.72,0.37,1.29,0.89,1.69,1.55
		c0.41,0.66,0.61,1.41,0.61,2.26c0,0.84-0.2,1.6-0.61,2.27s-0.97,1.19-1.69,1.56c-0.72,0.37-1.54,0.56-2.45,0.56
		C49.43,80.71,48.61,80.52,47.89,80.14z M52.23,78.26c0.5-0.49,0.75-1.14,0.75-1.94c0-0.8-0.25-1.45-0.75-1.94
		c-0.5-0.49-1.13-0.74-1.9-0.74c-0.77,0-1.4,0.25-1.89,0.74c-0.49,0.49-0.74,1.14-0.74,1.94c0,0.8,0.25,1.45,0.74,1.94
		c0.49,0.49,1.13,0.74,1.89,0.74C51.09,78.99,51.73,78.75,52.23,78.26z"/>
	<path class="st0" d="M65.23,78.19c0,0.77-0.3,1.36-0.9,1.78s-1.49,0.62-2.67,0.62h-4.54v-8.55h4.35c1.09,0,1.94,0.19,2.55,0.58
		s0.92,0.93,0.92,1.63c0,0.44-0.12,0.82-0.36,1.14c-0.24,0.32-0.58,0.57-1.01,0.75C64.68,76.46,65.23,77.15,65.23,78.19z
		 M59.11,75.61h2.18c1.08,0,1.62-0.36,1.62-1.07c0-0.69-0.54-1.04-1.62-1.04h-2.18V75.61z M63.21,78.06c0-0.37-0.13-0.65-0.4-0.84
		c-0.27-0.19-0.68-0.28-1.25-0.28h-2.45v2.19h2.38C62.64,79.14,63.21,78.78,63.21,78.06z"/>
	<path class="st0" d="M69.02,80.14c-0.73-0.37-1.31-0.89-1.72-1.56s-0.62-1.42-0.62-2.27c0-0.84,0.21-1.59,0.62-2.26
		c0.41-0.66,0.98-1.18,1.71-1.55c0.73-0.37,1.56-0.56,2.49-0.56c0.88,0,1.65,0.17,2.31,0.51c0.66,0.34,1.16,0.83,1.49,1.47l-1.6,0.9
		c-0.26-0.39-0.58-0.69-0.96-0.89c-0.38-0.2-0.8-0.3-1.26-0.3c-0.78,0-1.42,0.24-1.93,0.73s-0.77,1.13-0.77,1.94
		c0,0.81,0.25,1.46,0.76,1.95s1.15,0.73,1.94,0.73c0.46,0,0.88-0.1,1.26-0.3c0.38-0.2,0.7-0.49,0.96-0.89l1.6,0.9
		c-0.34,0.64-0.85,1.13-1.51,1.48c-0.66,0.35-1.43,0.52-2.29,0.52C70.58,80.71,69.75,80.52,69.02,80.14z"/>
	<path class="st0" d="M80.84,77.17h-1.62v3.43h-2.08v-8.55h2.08v3.46h1.67l2.63-3.46h2.23l-3.23,4.11l3.45,4.43h-2.45L80.84,77.17z"
		/>
	<path class="st0" d="M87.44,72.05h2.08v5.63l4.92-5.63h1.9v8.55h-2.08v-5.63l-4.9,5.63h-1.92V72.05z"/>
	<path class="st0" d="M99.14,72.05h2.08v5.63l4.92-5.63h1.9v8.55h-2.08v-5.63l-4.9,5.63h-1.92V72.05z M101.4,70.44
		c-0.47-0.4-0.71-0.99-0.73-1.75h1.38c0.01,0.38,0.14,0.69,0.38,0.91c0.24,0.22,0.58,0.34,1.01,0.34c0.42,0,0.76-0.11,1.01-0.34
		c0.25-0.22,0.38-0.53,0.39-0.91h1.42c-0.01,0.77-0.26,1.35-0.73,1.75c-0.48,0.4-1.17,0.6-2.07,0.6S101.88,70.84,101.4,70.44z"/>
	<path class="st0" d="M122.29,73.74h-4.75v6.85h-2.08v-8.55h6.84V73.74z"/>
	<path class="st0" d="M124.95,80.14c-0.72-0.37-1.29-0.89-1.69-1.56s-0.61-1.42-0.61-2.27c0-0.84,0.2-1.59,0.61-2.26
		c0.41-0.66,0.97-1.18,1.69-1.55c0.72-0.37,1.53-0.56,2.43-0.56c0.91,0,1.73,0.19,2.45,0.56c0.72,0.37,1.29,0.89,1.69,1.55
		c0.41,0.66,0.61,1.41,0.61,2.26c0,0.84-0.2,1.6-0.61,2.27s-0.97,1.19-1.69,1.56c-0.72,0.37-1.54,0.56-2.45,0.56
		C126.49,80.71,125.68,80.52,124.95,80.14z M129.29,78.26c0.5-0.49,0.75-1.14,0.75-1.94c0-0.8-0.25-1.45-0.75-1.94
		c-0.5-0.49-1.13-0.74-1.9-0.74c-0.77,0-1.4,0.25-1.89,0.74c-0.49,0.49-0.74,1.14-0.74,1.94c0,0.8,0.25,1.45,0.74,1.94
		c0.49,0.49,1.13,0.74,1.89,0.74C128.16,78.99,128.79,78.75,129.29,78.26z"/>
	<path class="st0" d="M135.76,80.14c-0.73-0.37-1.31-0.89-1.72-1.56s-0.62-1.42-0.62-2.27c0-0.84,0.21-1.59,0.62-2.26
		c0.41-0.66,0.98-1.18,1.71-1.55c0.73-0.37,1.56-0.56,2.49-0.56c0.88,0,1.65,0.17,2.31,0.51c0.66,0.34,1.16,0.83,1.49,1.47l-1.6,0.9
		c-0.26-0.39-0.58-0.69-0.96-0.89c-0.38-0.2-0.8-0.3-1.26-0.3c-0.78,0-1.42,0.24-1.93,0.73s-0.77,1.13-0.77,1.94
		c0,0.81,0.25,1.46,0.76,1.95s1.15,0.73,1.94,0.73c0.46,0,0.88-0.1,1.26-0.3c0.38-0.2,0.7-0.49,0.96-0.89l1.6,0.9
		c-0.34,0.64-0.85,1.13-1.51,1.48c-0.66,0.35-1.43,0.52-2.29,0.52C137.32,80.71,136.49,80.52,135.76,80.14z"/>
	<path class="st0" d="M152.17,72.05L148,81.28c-0.39,0.93-0.86,1.58-1.42,1.96s-1.23,0.57-2.02,0.57c-0.44,0-0.88-0.07-1.32-0.21
		c-0.43-0.14-0.79-0.33-1.07-0.58l0.83-1.47c0.2,0.18,0.44,0.33,0.71,0.43s0.55,0.16,0.83,0.16c0.37,0,0.67-0.09,0.91-0.27
		c0.24-0.18,0.46-0.49,0.66-0.91l0.15-0.34l-3.89-8.58h2.17l2.8,6.32l2.82-6.32H152.17z"/>
	<path class="st0" d="M162.57,78.9v3.6h-1.95v-1.91h-6.87v1.91h-1.93v-3.6h0.42c0.57-0.02,0.95-0.37,1.16-1.05s0.34-1.64,0.41-2.87
		l0.12-2.93h7.34v6.85H162.57z M155.45,77.52c-0.12,0.62-0.34,1.08-0.67,1.38h4.38v-5.15h-3.42l-0.05,1.38
		C155.66,76.1,155.57,76.9,155.45,77.52z"/>
	<path class="st0" d="M170.77,72.85c0.69,0.6,1.04,1.51,1.04,2.73v5.01h-1.97v-1.04c-0.26,0.37-0.62,0.66-1.09,0.86
		c-0.47,0.2-1.04,0.3-1.71,0.3c-0.67,0-1.25-0.11-1.75-0.33c-0.5-0.22-0.89-0.52-1.16-0.91c-0.27-0.39-0.41-0.83-0.41-1.32
		c0-0.77,0.3-1.38,0.89-1.85s1.53-0.7,2.81-0.7h2.3v-0.13c0-0.6-0.19-1.06-0.56-1.38s-0.93-0.48-1.66-0.48
		c-0.5,0-0.99,0.08-1.48,0.22c-0.48,0.15-0.89,0.36-1.23,0.62L163.99,73c0.47-0.34,1.03-0.6,1.68-0.78
		c0.66-0.18,1.35-0.27,2.08-0.27C169.07,71.95,170.07,72.25,170.77,72.85z M168.86,78.9c0.41-0.23,0.69-0.56,0.86-0.98v-0.99h-2.15
		c-1.2,0-1.8,0.38-1.8,1.14c0,0.36,0.15,0.65,0.45,0.86c0.3,0.21,0.72,0.32,1.25,0.32C167.99,79.25,168.46,79.13,168.86,78.9z"/>
	<path class="st0" d="M181.65,72.49c0.68,0.36,1.22,0.88,1.61,1.54c0.39,0.66,0.58,1.42,0.58,2.29c0,0.87-0.19,1.63-0.58,2.3
		s-0.93,1.18-1.61,1.54c-0.68,0.36-1.46,0.54-2.33,0.54c-1.2,0-2.15-0.38-2.85-1.15v4.15h-2.08V72.05h1.98v1.12
		c0.34-0.41,0.77-0.71,1.28-0.91c0.51-0.2,1.06-0.3,1.68-0.3C180.19,71.95,180.97,72.13,181.65,72.49z M180.99,78.26
		c0.49-0.49,0.74-1.14,0.74-1.94c0-0.8-0.25-1.45-0.74-1.94c-0.49-0.49-1.13-0.74-1.89-0.74c-0.5,0-0.95,0.11-1.35,0.33
		c-0.4,0.22-0.72,0.53-0.95,0.94s-0.35,0.88-0.35,1.41c0,0.53,0.12,1,0.35,1.41s0.55,0.72,0.95,0.94c0.4,0.22,0.85,0.33,1.35,0.33
		C179.86,78.99,180.49,78.75,180.99,78.26z"/>
	<path class="st0" d="M187.48,80.14c-0.73-0.37-1.31-0.89-1.72-1.56s-0.62-1.42-0.62-2.27c0-0.84,0.21-1.59,0.62-2.26
		c0.41-0.66,0.98-1.18,1.71-1.55c0.73-0.37,1.56-0.56,2.49-0.56c0.88,0,1.65,0.17,2.31,0.51c0.66,0.34,1.16,0.83,1.49,1.47l-1.6,0.9
		c-0.26-0.39-0.58-0.69-0.96-0.89c-0.38-0.2-0.8-0.3-1.26-0.3c-0.78,0-1.42,0.24-1.93,0.73s-0.77,1.13-0.77,1.94
		c0,0.81,0.25,1.46,0.76,1.95s1.15,0.73,1.94,0.73c0.46,0,0.88-0.1,1.26-0.3c0.38-0.2,0.7-0.49,0.96-0.89l1.6,0.9
		c-0.34,0.64-0.85,1.13-1.51,1.48c-0.66,0.35-1.43,0.52-2.29,0.52C189.04,80.71,188.21,80.52,187.48,80.14z"/>
	<path class="st0" d="M202.57,73.74h-3.12v6.85h-2.08v-6.85h-3.13v-1.7h8.34V73.74z"/>
	<path class="st0" d="M212.19,78.19c0,0.77-0.3,1.36-0.9,1.78s-1.49,0.62-2.67,0.62h-4.54v-8.55h4.35c1.09,0,1.94,0.19,2.55,0.58
		s0.92,0.93,0.92,1.63c0,0.44-0.12,0.82-0.36,1.14c-0.24,0.32-0.58,0.57-1.01,0.75C211.64,76.46,212.19,77.15,212.19,78.19z
		 M206.07,75.61h2.18c1.08,0,1.62-0.36,1.62-1.07c0-0.69-0.54-1.04-1.62-1.04h-2.18V75.61z M210.17,78.06c0-0.37-0.13-0.65-0.4-0.84
		c-0.27-0.19-0.68-0.28-1.25-0.28h-2.45v2.19h2.38C209.6,79.14,210.17,78.78,210.17,78.06z"/>
	<path class="st0" d="M222.71,76.96h-6.99c0.12,0.63,0.44,1.13,0.96,1.5c0.52,0.37,1.16,0.55,1.93,0.55c0.98,0,1.78-0.31,2.42-0.93
		l1.12,1.23c-0.4,0.46-0.91,0.81-1.52,1.04c-0.61,0.24-1.3,0.35-2.07,0.35c-0.98,0-1.84-0.19-2.58-0.56
		c-0.74-0.37-1.32-0.89-1.73-1.56s-0.61-1.42-0.61-2.27c0-0.83,0.2-1.58,0.59-2.25c0.39-0.67,0.94-1.19,1.64-1.56
		c0.7-0.37,1.49-0.56,2.37-0.56c0.87,0,1.64,0.18,2.33,0.55s1.22,0.89,1.6,1.55s0.58,1.44,0.58,2.31
		C222.75,76.51,222.73,76.7,222.71,76.96z M216.55,74.12c-0.46,0.38-0.74,0.88-0.84,1.51h5.05c-0.09-0.62-0.36-1.12-0.82-1.5
		c-0.46-0.38-1.02-0.58-1.7-0.58C217.58,73.55,217.01,73.74,216.55,74.12z"/>
	<path class="st0" d="M225.03,72.05h2.08v3.47h4.49v-3.47h2.08v8.55h-2.08v-3.38h-4.49v3.38h-2.08V72.05z"/>
	<path class="st0" d="M236.48,72.05h2.08v3.47h4.49v-3.47h2.08v8.55h-2.08v-3.38h-4.49v3.38h-2.08V72.05z"/>
	<path class="st0" d="M254.88,75.6c0.6,0.49,0.9,1.18,0.9,2.08c0,0.94-0.33,1.66-0.99,2.18s-1.6,0.76-2.81,0.75l-4.04-0.02v-8.55
		h2.08v2.8l2.25,0.02C253.41,74.86,254.27,75.11,254.88,75.6z M253.19,78.77c0.32-0.26,0.48-0.63,0.48-1.12
		c0-0.48-0.16-0.83-0.47-1.06c-0.31-0.22-0.78-0.34-1.42-0.35l-1.77-0.02v2.9l1.77,0.02C252.4,79.15,252.87,79.02,253.19,78.77z
		 M256.93,72.05h2.08v8.55h-2.08V72.05z"/>
	<path class="st0" d="M261.81,72.05h2.08v5.63l4.92-5.63h1.9v8.55h-2.08v-5.63l-4.9,5.63h-1.92V72.05z M264.07,70.44
		c-0.47-0.4-0.71-0.99-0.73-1.75h1.38c0.01,0.38,0.14,0.69,0.38,0.91s0.58,0.34,1.01,0.34c0.42,0,0.76-0.11,1.01-0.34
		s0.38-0.53,0.39-0.91h1.42c-0.01,0.77-0.26,1.35-0.73,1.75c-0.48,0.4-1.17,0.6-2.07,0.6S264.54,70.84,264.07,70.44z"/>
	<path class="st0" d="M286.52,72.05l-4.17,9.24c-0.39,0.93-0.86,1.58-1.42,1.96c-0.56,0.38-1.23,0.57-2.02,0.57
		c-0.45,0-0.88-0.07-1.32-0.21c-0.43-0.14-0.79-0.33-1.07-0.58l0.83-1.47c0.2,0.18,0.44,0.33,0.71,0.43
		c0.27,0.11,0.55,0.16,0.83,0.16c0.37,0,0.67-0.09,0.91-0.27s0.46-0.49,0.66-0.91l0.15-0.34l-3.88-8.58h2.17l2.8,6.32l2.82-6.32
		H286.52z"/>
	<path class="st0" d="M287.97,72.05h2.08v3.47h4.49v-3.47h2.08v8.55h-2.08v-3.38h-4.49v3.38h-2.08V72.05z"/>
	<path class="st0" d="M299.43,72.05h2.08v5.63l4.92-5.63h1.9v8.55h-2.08v-5.63l-4.9,5.63h-1.92V72.05z"/>
	<path class="st0" d="M319.23,78.19c0,0.77-0.3,1.36-0.9,1.78s-1.49,0.62-2.67,0.62h-4.54v-8.55h4.35c1.09,0,1.94,0.19,2.55,0.58
		s0.92,0.93,0.92,1.63c0,0.44-0.12,0.82-0.36,1.14c-0.24,0.32-0.58,0.57-1.01,0.75C318.68,76.46,319.23,77.15,319.23,78.19z
		 M313.12,75.61h2.18c1.08,0,1.62-0.36,1.62-1.07c0-0.69-0.54-1.04-1.62-1.04h-2.18V75.61z M317.22,78.06c0-0.37-0.13-0.65-0.4-0.84
		c-0.27-0.19-0.68-0.28-1.25-0.28h-2.45v2.19h2.38C316.64,79.14,317.22,78.78,317.22,78.06z"/>
	<path class="st0" d="M329.76,76.96h-6.99c0.12,0.63,0.44,1.13,0.96,1.5c0.52,0.37,1.16,0.55,1.93,0.55c0.98,0,1.78-0.31,2.42-0.93
		l1.12,1.23c-0.4,0.46-0.91,0.81-1.52,1.04c-0.61,0.24-1.3,0.35-2.07,0.35c-0.98,0-1.84-0.19-2.58-0.56
		c-0.75-0.37-1.32-0.89-1.73-1.56c-0.41-0.67-0.61-1.42-0.61-2.27c0-0.83,0.2-1.58,0.59-2.25c0.39-0.67,0.94-1.19,1.64-1.56
		c0.7-0.37,1.49-0.56,2.37-0.56c0.87,0,1.64,0.18,2.33,0.55s1.22,0.89,1.6,1.55s0.58,1.44,0.58,2.31
		C329.79,76.51,329.78,76.7,329.76,76.96z M323.59,74.12c-0.46,0.38-0.74,0.88-0.84,1.51h5.05c-0.09-0.62-0.36-1.12-0.82-1.5
		c-0.46-0.38-1.02-0.58-1.7-0.58C324.62,73.55,324.05,73.74,323.59,74.12z"/>
	<path class="st0" d="M339.33,72.49c0.68,0.36,1.22,0.88,1.61,1.54c0.39,0.66,0.58,1.42,0.58,2.29c0,0.87-0.19,1.63-0.58,2.3
		c-0.39,0.67-0.92,1.18-1.61,1.54c-0.68,0.36-1.46,0.54-2.33,0.54c-1.2,0-2.15-0.38-2.85-1.15v4.15h-2.08V72.05h1.98v1.12
		c0.34-0.41,0.77-0.71,1.28-0.91c0.51-0.2,1.06-0.3,1.68-0.3C337.88,71.95,338.65,72.13,339.33,72.49z M338.67,78.26
		c0.49-0.49,0.74-1.14,0.74-1.94c0-0.8-0.25-1.45-0.74-1.94c-0.5-0.49-1.13-0.74-1.89-0.74c-0.5,0-0.95,0.11-1.35,0.33
		s-0.72,0.53-0.95,0.94s-0.35,0.88-0.35,1.41c0,0.53,0.12,1,0.35,1.41s0.55,0.72,0.95,0.94s0.85,0.33,1.35,0.33
		C337.54,78.99,338.17,78.75,338.67,78.26z"/>
	<path class="st0" d="M345.16,80.14c-0.73-0.37-1.31-0.89-1.72-1.56c-0.41-0.67-0.62-1.42-0.62-2.27c0-0.84,0.21-1.59,0.62-2.26
		c0.41-0.66,0.98-1.18,1.71-1.55c0.73-0.37,1.56-0.56,2.49-0.56c0.88,0,1.65,0.17,2.31,0.51c0.66,0.34,1.16,0.83,1.49,1.47l-1.6,0.9
		c-0.26-0.39-0.58-0.69-0.96-0.89c-0.38-0.2-0.8-0.3-1.26-0.3c-0.78,0-1.42,0.24-1.93,0.73c-0.51,0.49-0.77,1.13-0.77,1.94
		c0,0.81,0.25,1.46,0.76,1.95s1.15,0.73,1.94,0.73c0.46,0,0.88-0.1,1.26-0.3s0.7-0.49,0.96-0.89l1.6,0.9
		c-0.34,0.64-0.85,1.13-1.51,1.48c-0.66,0.35-1.43,0.52-2.29,0.52C346.72,80.71,345.89,80.52,345.16,80.14z"/>
	<path class="st0" d="M353.28,72.05h2.08v5.63l4.92-5.63h1.9v8.55h-2.08v-5.63l-4.9,5.63h-1.92V72.05z"/>
	<path class="st0" d="M372.04,73.74h-3.12v6.85h-2.08v-6.85h-3.13v-1.7h8.34V73.74z"/>
	<path class="st0" d="M381.48,76.96h-6.99c0.12,0.63,0.44,1.13,0.96,1.5c0.52,0.37,1.16,0.55,1.93,0.55c0.98,0,1.78-0.31,2.42-0.93
		l1.12,1.23c-0.4,0.46-0.91,0.81-1.52,1.04c-0.61,0.24-1.3,0.35-2.07,0.35c-0.98,0-1.84-0.19-2.58-0.56
		c-0.75-0.37-1.32-0.89-1.73-1.56c-0.41-0.67-0.61-1.42-0.61-2.27c0-0.83,0.2-1.58,0.59-2.25c0.39-0.67,0.94-1.19,1.64-1.56
		c0.7-0.37,1.49-0.56,2.37-0.56c0.87,0,1.64,0.18,2.33,0.55s1.22,0.89,1.6,1.55s0.58,1.44,0.58,2.31
		C381.51,76.51,381.5,76.7,381.48,76.96z M375.32,74.12c-0.46,0.38-0.74,0.88-0.84,1.51h5.05c-0.09-0.62-0.36-1.12-0.82-1.5
		c-0.46-0.38-1.02-0.58-1.7-0.58C376.34,73.55,375.78,73.74,375.32,74.12z"/>
	<path class="st0" d="M390.51,73.74h-3.12v6.85h-2.08v-6.85h-3.13v-1.7h8.34V73.74z"/>
	<path class="st0" d="M91.88,92.95h-4.75v6.85h-2.08v-8.55h6.84V92.95z"/>
	<path class="st0" d="M101.31,96.17h-6.99c0.12,0.63,0.44,1.13,0.96,1.5c0.52,0.37,1.16,0.55,1.93,0.55c0.98,0,1.78-0.31,2.42-0.93
		l1.12,1.23c-0.4,0.46-0.91,0.81-1.52,1.04c-0.61,0.24-1.3,0.35-2.07,0.35c-0.98,0-1.84-0.19-2.58-0.56
		c-0.74-0.37-1.32-0.89-1.73-1.56s-0.61-1.42-0.61-2.27c0-0.83,0.2-1.58,0.59-2.25c0.39-0.67,0.94-1.19,1.64-1.56
		c0.7-0.37,1.49-0.56,2.37-0.56c0.87,0,1.64,0.18,2.33,0.55s1.22,0.89,1.6,1.55s0.58,1.44,0.58,2.31
		C101.35,95.71,101.34,95.91,101.31,96.17z M95.15,93.33c-0.46,0.38-0.74,0.88-0.84,1.51h5.05c-0.09-0.62-0.36-1.12-0.82-1.5
		c-0.46-0.38-1.02-0.58-1.7-0.58C96.18,92.76,95.61,92.95,95.15,93.33z"/>
	<path class="st0" d="M105.16,99.35c-0.72-0.37-1.29-0.89-1.69-1.56s-0.61-1.42-0.61-2.27c0-0.84,0.2-1.59,0.61-2.26
		c0.41-0.66,0.97-1.18,1.69-1.55c0.72-0.37,1.53-0.56,2.43-0.56c0.91,0,1.73,0.19,2.45,0.56c0.72,0.37,1.29,0.89,1.69,1.55
		c0.41,0.66,0.61,1.41,0.61,2.26c0,0.84-0.2,1.6-0.61,2.27s-0.97,1.19-1.69,1.56c-0.72,0.37-1.54,0.56-2.45,0.56
		C106.7,99.91,105.89,99.73,105.16,99.35z M109.5,97.46c0.5-0.49,0.75-1.14,0.75-1.94c0-0.8-0.25-1.45-0.75-1.94
		c-0.5-0.49-1.13-0.74-1.9-0.74c-0.77,0-1.4,0.25-1.89,0.74c-0.49,0.49-0.74,1.14-0.74,1.94c0,0.8,0.25,1.45,0.74,1.94
		c0.49,0.49,1.13,0.74,1.89,0.74C108.37,98.2,109,97.96,109.5,97.46z"/>
	<path class="st0" d="M123.81,98.1v3.6h-1.95V99.8h-6.87v1.91h-1.93v-3.6h0.42c0.57-0.02,0.95-0.37,1.16-1.05s0.34-1.64,0.41-2.87
		l0.12-2.93h7.34v6.85H123.81z M116.69,96.73c-0.12,0.62-0.34,1.08-0.67,1.38h4.38v-5.15h-3.42l-0.05,1.38
		C116.89,95.31,116.81,96.11,116.69,96.73z"/>
	<path class="st0" d="M133.98,96.17h-6.99c0.12,0.63,0.44,1.13,0.96,1.5c0.52,0.37,1.16,0.55,1.93,0.55c0.98,0,1.78-0.31,2.42-0.93
		l1.12,1.23c-0.4,0.46-0.91,0.81-1.52,1.04c-0.61,0.24-1.3,0.35-2.07,0.35c-0.98,0-1.84-0.19-2.58-0.56
		c-0.74-0.37-1.32-0.89-1.73-1.56s-0.61-1.42-0.61-2.27c0-0.83,0.2-1.58,0.59-2.25c0.39-0.67,0.94-1.19,1.64-1.56
		c0.7-0.37,1.49-0.56,2.37-0.56c0.87,0,1.64,0.18,2.33,0.55s1.22,0.89,1.6,1.55s0.58,1.44,0.58,2.31
		C134.01,95.71,134,95.91,133.98,96.17z M127.82,93.33c-0.46,0.38-0.74,0.88-0.84,1.51h5.05c-0.09-0.62-0.36-1.12-0.82-1.5
		c-0.46-0.38-1.02-0.58-1.7-0.58C128.84,92.76,128.28,92.95,127.82,93.33z"/>
	<path class="st0" d="M142.74,96.08c0.31,0.34,0.46,0.74,0.46,1.21c0,0.52-0.18,0.98-0.55,1.38c-0.37,0.4-0.87,0.71-1.52,0.94
		c-0.65,0.22-1.38,0.34-2.2,0.34c-0.69,0-1.36-0.08-2.02-0.23s-1.25-0.38-1.78-0.66l0.6-1.49c0.43,0.24,0.92,0.42,1.47,0.54
		c0.54,0.13,1.09,0.19,1.63,0.19c0.7,0,1.25-0.1,1.64-0.31c0.39-0.21,0.59-0.49,0.59-0.86c0-0.33-0.15-0.59-0.46-0.77
		s-0.74-0.27-1.29-0.27h-1.73v-1.34h1.57c0.52,0,0.93-0.08,1.23-0.26s0.44-0.41,0.44-0.72c0-0.31-0.18-0.55-0.53-0.74
		c-0.36-0.18-0.84-0.27-1.47-0.27c-0.89,0-1.83,0.21-2.82,0.62l-0.53-1.47c1.17-0.52,2.35-0.78,3.54-0.78c0.76,0,1.43,0.1,2.03,0.3
		c0.6,0.2,1.07,0.47,1.41,0.83c0.34,0.36,0.51,0.77,0.51,1.22c0,0.42-0.13,0.79-0.4,1.11c-0.27,0.33-0.63,0.58-1.1,0.76
		C142,95.5,142.43,95.74,142.74,96.08z"/>
	<path class="st0" d="M145.36,91.25h2.08v5.63l4.92-5.63h1.9v8.55h-2.08v-5.63l-4.9,5.63h-1.92V91.25z"/>
	<path class="st0" d="M157.07,91.25h2.08v5.63l4.92-5.63h1.9v8.55h-2.08v-5.63l-4.9,5.63h-1.92V91.25z"/>
	<path class="st0" d="M173.37,91.25h2.08v5.63l4.92-5.63h1.9v8.55h-2.08v-5.63l-4.9,5.63h-1.92V91.25z"/>
	<path class="st0" d="M193.38,96.38h-1.62v3.43h-2.08v-8.55h2.08v3.46h1.67l2.63-3.46h2.23l-3.23,4.11l3.45,4.43h-2.45L193.38,96.38
		z"/>
	<path class="st0" d="M206.15,92.06c0.69,0.6,1.04,1.51,1.04,2.73v5.01h-1.97v-1.04c-0.26,0.37-0.62,0.66-1.09,0.86
		c-0.47,0.2-1.04,0.3-1.71,0.3c-0.67,0-1.25-0.11-1.75-0.33c-0.5-0.22-0.89-0.52-1.16-0.91c-0.27-0.39-0.41-0.83-0.41-1.32
		c0-0.77,0.3-1.38,0.89-1.85s1.53-0.7,2.81-0.7h2.3v-0.13c0-0.6-0.19-1.06-0.56-1.38s-0.93-0.48-1.66-0.48
		c-0.5,0-0.99,0.08-1.48,0.22c-0.48,0.15-0.89,0.36-1.23,0.62l-0.82-1.46c0.47-0.34,1.03-0.6,1.68-0.78
		c0.66-0.18,1.35-0.27,2.08-0.27C204.45,91.16,205.45,91.46,206.15,92.06z M204.25,98.11c0.41-0.23,0.69-0.56,0.86-0.98v-0.99h-2.15
		c-1.2,0-1.8,0.38-1.8,1.14c0,0.36,0.15,0.65,0.45,0.86c0.3,0.21,0.72,0.32,1.25,0.32C203.38,98.46,203.84,98.34,204.25,98.11z"/>
	<path class="st0" d="M217.03,91.7c0.68,0.36,1.22,0.88,1.61,1.54c0.39,0.66,0.58,1.42,0.58,2.29c0,0.87-0.19,1.63-0.58,2.3
		s-0.93,1.18-1.61,1.54c-0.68,0.36-1.46,0.54-2.33,0.54c-1.2,0-2.15-0.38-2.85-1.15v4.15h-2.08V91.25h1.98v1.12
		c0.34-0.41,0.77-0.71,1.28-0.91c0.51-0.2,1.06-0.3,1.68-0.3C215.57,91.16,216.35,91.34,217.03,91.7z M216.37,97.46
		c0.49-0.49,0.74-1.14,0.74-1.94c0-0.8-0.25-1.45-0.74-1.94c-0.49-0.49-1.13-0.74-1.89-0.74c-0.5,0-0.95,0.11-1.35,0.33
		c-0.4,0.22-0.72,0.53-0.95,0.94s-0.35,0.88-0.35,1.41c0,0.53,0.12,1,0.35,1.41s0.55,0.72,0.95,0.94c0.4,0.22,0.85,0.33,1.35,0.33
		C215.24,98.2,215.87,97.96,216.37,97.46z"/>
	<path class="st0" d="M228.01,92.95h-3.12v6.85h-2.08v-6.85h-3.13v-1.7h8.34V92.95z"/>
	<path class="st0" d="M230.68,99.35c-0.72-0.37-1.29-0.89-1.69-1.56c-0.41-0.67-0.61-1.42-0.61-2.27c0-0.84,0.2-1.59,0.61-2.26
		c0.41-0.66,0.97-1.18,1.69-1.55c0.72-0.37,1.53-0.56,2.43-0.56c0.91,0,1.73,0.19,2.45,0.56c0.72,0.37,1.29,0.89,1.69,1.55
		c0.41,0.66,0.61,1.41,0.61,2.26c0,0.84-0.2,1.6-0.61,2.27c-0.41,0.67-0.97,1.19-1.69,1.56c-0.72,0.37-1.54,0.56-2.45,0.56
		C232.22,99.91,231.4,99.73,230.68,99.35z M235.02,97.46c0.5-0.49,0.75-1.14,0.75-1.94c0-0.8-0.25-1.45-0.75-1.94
		c-0.5-0.49-1.13-0.74-1.9-0.74c-0.77,0-1.4,0.25-1.89,0.74c-0.5,0.49-0.74,1.14-0.74,1.94c0,0.8,0.25,1.45,0.74,1.94
		c0.49,0.49,1.13,0.74,1.89,0.74C233.88,98.2,234.52,97.96,235.02,97.46z"/>
	<path class="st0" d="M246.75,92.95H242v6.85h-2.08v-8.55h6.84V92.95z"/>
	<path class="st0" d="M255.53,91.7c0.68,0.36,1.22,0.88,1.61,1.54c0.39,0.66,0.58,1.42,0.58,2.29c0,0.87-0.19,1.63-0.58,2.3
		c-0.39,0.67-0.92,1.18-1.61,1.54c-0.68,0.36-1.46,0.54-2.33,0.54c-1.2,0-2.15-0.38-2.85-1.15v4.15h-2.08V91.25h1.98v1.12
		c0.34-0.41,0.77-0.71,1.28-0.91c0.51-0.2,1.06-0.3,1.68-0.3C254.08,91.16,254.85,91.34,255.53,91.7z M254.87,97.46
		c0.49-0.49,0.74-1.14,0.74-1.94c0-0.8-0.25-1.45-0.74-1.94c-0.5-0.49-1.13-0.74-1.89-0.74c-0.5,0-0.95,0.11-1.35,0.33
		s-0.72,0.53-0.95,0.94s-0.35,0.88-0.35,1.41c0,0.53,0.12,1,0.35,1.41s0.55,0.72,0.95,0.94s0.85,0.33,1.35,0.33
		C253.74,98.2,254.37,97.96,254.87,97.46z"/>
	<path class="st0" d="M266.01,92.06c0.69,0.6,1.04,1.51,1.04,2.73v5.01h-1.97v-1.04c-0.26,0.37-0.62,0.66-1.09,0.86
		c-0.47,0.2-1.04,0.3-1.71,0.3s-1.25-0.11-1.75-0.33s-0.89-0.52-1.16-0.91c-0.27-0.39-0.41-0.83-0.41-1.32
		c0-0.77,0.3-1.38,0.89-1.85s1.53-0.7,2.81-0.7h2.3v-0.13c0-0.6-0.19-1.06-0.56-1.38c-0.37-0.32-0.93-0.48-1.66-0.48
		c-0.5,0-0.99,0.08-1.48,0.22s-0.89,0.36-1.23,0.62l-0.82-1.46c0.47-0.34,1.03-0.6,1.68-0.78c0.66-0.18,1.35-0.27,2.08-0.27
		C264.31,91.16,265.31,91.46,266.01,92.06z M264.1,98.11c0.41-0.23,0.69-0.56,0.86-0.98v-0.99h-2.15c-1.2,0-1.8,0.38-1.8,1.14
		c0,0.36,0.15,0.65,0.45,0.86c0.3,0.21,0.72,0.32,1.25,0.32C263.24,98.46,263.7,98.34,264.1,98.11z"/>
	<path class="st0" d="M280.03,98.63c-0.92,0.76-2.23,1.19-3.93,1.3v2.98h-1.97v-2.96c-1.7-0.11-3.01-0.54-3.92-1.3
		c-0.91-0.76-1.37-1.8-1.37-3.14c0-1.32,0.46-2.36,1.37-3.1c0.91-0.74,2.22-1.17,3.92-1.27v-3.22h1.97v3.22
		c1.7,0.11,3.01,0.53,3.93,1.28c0.92,0.75,1.38,1.78,1.38,3.09C281.4,96.84,280.95,97.88,280.03,98.63z M271.69,97.43
		c0.53,0.46,1.34,0.74,2.44,0.83v-5.43c-1.1,0.08-1.92,0.35-2.44,0.8c-0.53,0.45-0.79,1.07-0.79,1.87
		C270.9,96.33,271.16,96.97,271.69,97.43z M279.37,95.51c0-0.81-0.27-1.44-0.81-1.88c-0.54-0.44-1.36-0.71-2.46-0.79v5.43
		C278.28,98.07,279.37,97.16,279.37,95.51z"/>
	<path class="st0" d="M283.42,91.25h2.08v5.63l4.92-5.63h1.9v8.55h-2.08v-5.63l-4.9,5.63h-1.92V91.25z"/>
	<path class="st0" d="M295.13,91.25h2.08v5.63l4.92-5.63h1.9v8.55h-2.08v-5.63l-4.9,5.63h-1.92V91.25z"/>
</g>
</svg>
